<svg id="visual" viewBox="0 0 900 600" width="900" height="600" xmlns="http://www.w3.org/2000/svg" xmlns:xlink="http://www.w3.org/1999/xlink" version="1.1"><rect x="0" y="0" width="900" height="600" fill="#e7eea0"></rect><path d="M0 407L21.5 408C43 409 86 411 128.8 412.7C171.7 414.3 214.3 415.7 257.2 413.5C300 411.3 343 405.7 385.8 401.5C428.7 397.3 471.3 394.7 514.2 387.8C557 381 600 370 642.8 373.3C685.7 376.7 728.3 394.3 771.2 408.7C814 423 857 434 878.5 439.5L900 445L900 601L878.5 601C857 601 814 601 771.2 601C728.3 601 685.7 601 642.8 601C600 601 557 601 514.2 601C471.3 601 428.7 601 385.8 601C343 601 300 601 257.2 601C214.3 601 171.7 601 128.8 601C86 601 43 601 21.5 601L0 601Z" fill="#4aa629"></path><path d="M0 451L21.5 454.2C43 457.3 86 463.7 128.8 466.3C171.7 469 214.3 468 257.2 469.2C300 470.3 343 473.7 385.8 473.3C428.7 473 471.3 469 514.2 456.8C557 444.7 600 424.3 642.8 426.5C685.7 428.7 728.3 453.3 771.2 452.3C814 451.3 857 424.7 878.5 411.3L900 398L900 601L878.5 601C857 601 814 601 771.2 601C728.3 601 685.7 601 642.8 601C600 601 557 601 514.2 601C471.3 601 428.7 601 385.8 601C343 601 300 601 257.2 601C214.3 601 171.7 601 128.8 601C86 601 43 601 21.5 601L0 601Z" fill="#38932b"></path><path d="M0 478L21.5 479.8C43 481.7 86 485.3 128.8 480.7C171.7 476 214.3 463 257.2 460.5C300 458 343 466 385.8 475C428.7 484 471.3 494 514.2 491C557 488 600 472 642.8 461.5C685.7 451 728.3 446 771.2 453.8C814 461.7 857 482.3 878.5 492.7L900 503L900 601L878.5 601C857 601 814 601 771.2 601C728.3 601 685.7 601 642.8 601C600 601 557 601 514.2 601C471.3 601 428.7 601 385.8 601C343 601 300 601 257.2 601C214.3 601 171.7 601 128.8 601C86 601 43 601 21.5 601L0 601Z" fill="#28812b"></path><path d="M0 513L21.5 509.7C43 506.3 86 499.7 128.8 498C171.7 496.3 214.3 499.7 257.2 501.7C300 503.7 343 504.3 385.8 504.2C428.7 504 471.3 503 514.2 504C557 505 600 508 642.8 504.7C685.7 501.3 728.3 491.7 771.2 493.5C814 495.3 857 508.7 878.5 515.3L900 522L900 601L878.5 601C857 601 814 601 771.2 601C728.3 601 685.7 601 642.8 601C600 601 557 601 514.2 601C471.3 601 428.7 601 385.8 601C343 601 300 601 257.2 601C214.3 601 171.7 601 128.8 601C86 601 43 601 21.5 601L0 601Z" fill="#1a6f29"></path><path d="M0 567L21.5 564.3C43 561.7 86 556.3 128.8 556.5C171.7 556.7 214.3 562.3 257.2 566.2C300 570 343 572 385.8 569.8C428.7 567.7 471.3 561.3 514.2 557.2C557 553 600 551 642.8 552.2C685.7 553.3 728.3 557.7 771.2 559.7C814 561.7 857 561.3 878.5 561.2L900 561L900 601L878.5 601C857 601 814 601 771.2 601C728.3 601 685.7 601 642.8 601C600 601 557 601 514.2 601C471.3 601 428.7 601 385.8 601C343 601 300 601 257.2 601C214.3 601 171.7 601 128.8 601C86 601 43 601 21.5 601L0 601Z" fill="#0d5e26"></path></svg>