<svg id="visual" viewBox="0 0 960 540" width="960" height="540"
    xmlns="http://www.w3.org/2000/svg"
    xmlns:xlink="http://www.w3.org/1999/xlink" version="1.1">
    <rect x="0" y="0" width="960" height="540" fill="#e7eea0"></rect>
    <path d="M0 366L22.8 366.8C45.7 367.7 91.3 369.3 137 370.8C182.7 372.3 228.3 373.7 274 371.8C319.7 370 365.3 365 411.2 361.3C457 357.7 503 355.3 548.8 349.2C594.7 343 640.3 333 686 335.8C731.7 338.7 777.3 354.3 823 367.3C868.7 380.3 914.3 390.7 937.2 395.8L960 401L960 541L937.2 541C914.3 541 868.7 541 823 541C777.3 541 731.7 541 686 541C640.3 541 594.7 541 548.8 541C503 541 457 541 411.2 541C365.3 541 319.7 541 274 541C228.3 541 182.7 541 137 541C91.3 541 45.7 541 22.8 541L0 541Z" fill="#4aa629"></path>
    <path d="M0 406L22.8 408.8C45.7 411.7 91.3 417.3 137 419.7C182.7 422 228.3 421 274 422C319.7 423 365.3 426 411.2 425.8C457 425.7 503 422.3 548.8 411.3C594.7 400.3 640.3 381.7 686 383.5C731.7 385.3 777.3 407.7 823 406.8C868.7 406 914.3 382 937.2 370L960 358L960 541L937.2 541C914.3 541 868.7 541 823 541C777.3 541 731.7 541 686 541C640.3 541 594.7 541 548.8 541C503 541 457 541 411.2 541C365.3 541 319.7 541 274 541C228.3 541 182.7 541 137 541C91.3 541 45.7 541 22.8 541L0 541Z" fill="#38932b"></path>
    <path d="M0 430L22.8 431.7C45.7 433.3 91.3 436.7 137 432.5C182.7 428.3 228.3 416.7 274 414.5C319.7 412.3 365.3 419.7 411.2 427.8C457 436 503 445 548.8 442.2C594.7 439.3 640.3 424.7 686 415.2C731.7 405.7 777.3 401.3 823 408.3C868.7 415.3 914.3 433.7 937.2 442.8L960 452L960 541L937.2 541C914.3 541 868.7 541 823 541C777.3 541 731.7 541 686 541C640.3 541 594.7 541 548.8 541C503 541 457 541 411.2 541C365.3 541 319.7 541 274 541C228.3 541 182.7 541 137 541C91.3 541 45.7 541 22.8 541L0 541Z" fill="#28812b"></path>
    <path d="M0 462L22.8 458.8C45.7 455.7 91.3 449.3 137 447.7C182.7 446 228.3 449 274 450.8C319.7 452.7 365.3 453.3 411.2 453.3C457 453.3 503 452.7 548.8 453.5C594.7 454.3 640.3 456.7 686 453.7C731.7 450.7 777.3 442.3 823 444.2C868.7 446 914.3 458 937.2 464L960 470L960 541L937.2 541C914.3 541 868.7 541 823 541C777.3 541 731.7 541 686 541C640.3 541 594.7 541 548.8 541C503 541 457 541 411.2 541C365.3 541 319.7 541 274 541C228.3 541 182.7 541 137 541C91.3 541 45.7 541 22.8 541L0 541Z" fill="#1a6f29"></path>
    <path d="M0 510L22.8 507.7C45.7 505.3 91.3 500.7 137 500.8C182.7 501 228.3 506 274 509.3C319.7 512.7 365.3 514.3 411.2 512.5C457 510.7 503 505.3 548.8 501.7C594.7 498 640.3 496 686 497C731.7 498 777.3 502 823 503.8C868.7 505.7 914.3 505.3 937.2 505.2L960 505L960 541L937.2 541C914.3 541 868.7 541 823 541C777.3 541 731.7 541 686 541C640.3 541 594.7 541 548.8 541C503 541 457 541 411.2 541C365.3 541 319.7 541 274 541C228.3 541 182.7 541 137 541C91.3 541 45.7 541 22.8 541L0 541Z" fill="#0d5e26"></path>
</svg>